# xmcd
# 
# Track frame offsets:
#     150
#     12975
#     42500
#     55100
#     78638
#     91150
#     108093
#     125100
#     139575
#     154930
#     165758
#     175928
#     188308
#     200955
#     217100
#     232383
#     246630
#     258550
#     271640
#     284240
#     297128
# 
# Disc length: 4127
# 
# Revision: 4
# Processed by: cddbd v1.5.2PL0 Copyright (c) Steve Scherf et al.
# Submitted via: BonkEnc v1.0
# 
DISCID=3e101d15
DTITLE=Elis Regina - A arte de Elis Regina
DYEAR=1988
DGENRE=MPB
TTITLE0=Reza 2'51
TTITLE1=O morro não tem vez/Feio não é bonito/Samba do Carioca/Esse mundo é meu/A felicidade 6'33
TTITLE2=Arrastão 2'48
TTITLE3=Zambi 5'13
TTITLE4=Tristeza que se foi 2'46
TTITLE5=Louvação 3'45
TTITLE6=Pra dizer adeus 3'46
TTITLE7=Lunik 9 3'13
TTITLE8=Aquarela do Brasil/Nega do cabelo duro 3'24
TTITLE9=Upa neguinho 2'24
TTITLE10=Corrida de jangada 2'15
TTITLE11=Vera Cruz 2'45
TTITLE12=Casa forte 2'48
TTITLE13=As curvas da estrada de Santos 3'35
TTITLE14=Vou deitar e rolar 3'23
TTITLE15=Ih! Meu Deus do Céu 3'09
TTITLE16=Madalena 2'38
TTITLE17=Águas de março 2'54
TTITLE18=Atrás da porta 2'48
TTITLE19=Casa no campo 2'51
TTITLE20=É com este que eu vou 2'45
EXTD=YEAR: 1988
EXTT0=
EXTT1=ade
EXTT2=
EXTT3=
EXTT4=
EXTT5=
EXTT6=
EXTT7=
EXTT8=
EXTT9=
EXTT10=
EXTT11=
EXTT12=
EXTT13=
EXTT14=
EXTT15=
EXTT16=
EXTT17=
EXTT18=
EXTT19=
EXTT20=
PLAYORDER=
